<svg xmlns="http://www.w3.org/2000/svg" viewBox="0 0 880 360" font-family="-apple-system,'Segoe UI',Roboto,Helvetica,Arial,sans-serif">
  <rect x="0.5" y="0.5" width="879" height="359" rx="14" fill="#0d1117" stroke="#30363d"/>
  <text x="36" y="30" font-size="15" font-weight="700" fill="#e6edf3">tensor-core matmul, fp16 (TFLOP/s)</text>
  <text x="36" y="50" font-size="11.5" fill="#6e7681">sustained same-run medians</text>
  <g font-size="11.5" fill="#8b949e">
    <rect x="620" y="16" width="12" height="12" rx="3" fill="#2dd4bf"/><text x="636" y="26">newt</text>
    <rect x="700" y="16" width="12" height="12" rx="3" fill="#818cf8"/><text x="716" y="26">triton</text>
    <rect x="786" y="16" width="12" height="12" rx="3" fill="#f0883e"/><text x="802" y="26">torch</text>
  </g>
  <g stroke="#1c2128" stroke-width="1">
    <path d="M70 243 H846"/><path d="M70 186 H846"/><path d="M70 129 H846"/><path d="M70 72 H846"/>
  </g>
  <path d="M70 300 H846" stroke="#30363d" stroke-width="1.5"/>
  <g font-size="10.5" fill="#6e7681" text-anchor="end">
    <text x="62" y="304">0</text><text x="62" y="247">30</text><text x="62" y="190">60</text><text x="62" y="133">90</text><text x="62" y="76">120</text>
  </g>

  <g font-size="10" font-family="ui-monospace,Consolas,monospace">
    <rect x="104" y="172.3" width="40" height="127.7" rx="3" fill="#2dd4bf"/><text x="124" y="166" text-anchor="middle" fill="#e6edf3">67.2</text>
    <rect x="150" y="145.7" width="40" height="154.3" rx="3" fill="#818cf8"/><text x="170" y="139.7" text-anchor="middle" fill="#8b949e">81.2</text>
    <rect x="196" y="171.2" width="40" height="128.8" rx="3" fill="#f0883e"/><text x="216" y="165.2" text-anchor="middle" fill="#8b949e">67.8</text>

    <rect x="284" y="142.9" width="40" height="157.1" rx="3" fill="#2dd4bf"/><text x="304" y="136.9" text-anchor="middle" fill="#e6edf3">82.7</text>
    <rect x="330" y="107.9" width="40" height="192.1" rx="3" fill="#818cf8"/><text x="350" y="101.9" text-anchor="middle" fill="#8b949e">101.1</text>
    <rect x="376" y="104.1" width="40" height="195.9" rx="3" fill="#f0883e"/><text x="396" y="98.1" text-anchor="middle" fill="#8b949e">103.1</text>

    <rect x="464" y="144.8" width="40" height="155.2" rx="3" fill="#2dd4bf"/><text x="484" y="138.8" text-anchor="middle" fill="#e6edf3">81.7</text>
    <rect x="510" y="73.9" width="40" height="226.1" rx="3" fill="#818cf8"/><text x="530" y="67.9" text-anchor="middle" fill="#8b949e">119.0</text>
    <rect x="556" y="109.4" width="40" height="190.6" rx="3" fill="#f0883e"/><text x="576" y="103.4" text-anchor="middle" fill="#8b949e">100.3</text>

    <rect x="644" y="153.7" width="40" height="146.3" rx="3" fill="#2dd4bf"/><text x="664" y="147.7" text-anchor="middle" fill="#e6edf3">77.0</text>
    <rect x="690" y="108.5" width="40" height="191.5" rx="3" fill="#818cf8"/><text x="710" y="102.5" text-anchor="middle" fill="#8b949e">100.8</text>
    <rect x="736" y="119.5" width="40" height="180.5" rx="3" fill="#f0883e"/><text x="756" y="113.5" text-anchor="middle" fill="#8b949e">95.0</text>
  </g>
  <g font-size="12" fill="#8b949e" text-anchor="middle" font-family="ui-monospace,Consolas,monospace">
    <text x="170" y="322">1024&#179;</text><text x="350" y="322">2048&#179;</text><text x="530" y="322">4096&#179;</text><text x="710" y="322">8192&#179;</text>
  </g>
  <text x="440" y="348" text-anchor="middle" font-size="11.5" fill="#6e7681">newt holds 76-83% of triton sustained on a thermally limited 110 W laptop; cold-start single runs reach ~92% (chart below)</text>
</svg>
